<mxfile host="app.diagrams.net" agent="Mozilla/5.0 (Windows NT 10.0; Win64; x64) AppleWebKit/537.36 (KHTML, like Gecko) Chrome/130.0.0.0 YaBrowser/24.12.0.0 Safari/537.36" version="26.0.4">
  <diagram name="Страница — 1" id="m5t2pMFYY3bFJD1BpIWN">
    <mxGraphModel dx="1434" dy="783" grid="1" gridSize="10" guides="1" tooltips="1" connect="1" arrows="1" fold="1" page="1" pageScale="1" pageWidth="827" pageHeight="1169" math="0" shadow="0">
      <root>
        <mxCell id="0" />
        <mxCell id="1" parent="0" />
        <mxCell id="cLZ4lquTuIUv25ZifMkw-2" style="edgeStyle=orthogonalEdgeStyle;rounded=0;orthogonalLoop=1;jettySize=auto;html=1;entryX=0.5;entryY=1;entryDx=0;entryDy=0;" edge="1" parent="1" source="cLZ4lquTuIUv25ZifMkw-1" target="cLZ4lquTuIUv25ZifMkw-3">
          <mxGeometry relative="1" as="geometry">
            <mxPoint x="440" y="280" as="targetPoint" />
            <Array as="points">
              <mxPoint x="400" y="320" />
              <mxPoint x="441" y="320" />
            </Array>
          </mxGeometry>
        </mxCell>
        <mxCell id="cLZ4lquTuIUv25ZifMkw-4" style="edgeStyle=orthogonalEdgeStyle;rounded=0;orthogonalLoop=1;jettySize=auto;html=1;" edge="1" parent="1" source="cLZ4lquTuIUv25ZifMkw-1">
          <mxGeometry relative="1" as="geometry">
            <mxPoint x="360" y="270" as="targetPoint" />
          </mxGeometry>
        </mxCell>
        <mxCell id="cLZ4lquTuIUv25ZifMkw-6" style="edgeStyle=orthogonalEdgeStyle;rounded=0;orthogonalLoop=1;jettySize=auto;html=1;" edge="1" parent="1">
          <mxGeometry relative="1" as="geometry">
            <mxPoint x="270" y="270" as="targetPoint" />
            <mxPoint x="360" y="370" as="sourcePoint" />
            <Array as="points">
              <mxPoint x="360" y="321" />
              <mxPoint x="271" y="321" />
            </Array>
          </mxGeometry>
        </mxCell>
        <mxCell id="cLZ4lquTuIUv25ZifMkw-1" value="&lt;h1&gt;&lt;font style=&quot;font-size: 23px;&quot;&gt;&lt;i&gt;&lt;u&gt;LavenderLands&lt;/u&gt;&lt;/i&gt;&lt;/font&gt;&lt;/h1&gt;" style="rounded=0;whiteSpace=wrap;html=1;" vertex="1" parent="1">
          <mxGeometry x="310" y="370" width="180" height="60" as="geometry" />
        </mxCell>
        <mxCell id="cLZ4lquTuIUv25ZifMkw-8" style="edgeStyle=orthogonalEdgeStyle;rounded=0;orthogonalLoop=1;jettySize=auto;html=1;" edge="1" parent="1" source="cLZ4lquTuIUv25ZifMkw-3">
          <mxGeometry relative="1" as="geometry">
            <mxPoint x="440" y="150" as="targetPoint" />
          </mxGeometry>
        </mxCell>
        <mxCell id="cLZ4lquTuIUv25ZifMkw-11" style="edgeStyle=orthogonalEdgeStyle;rounded=0;orthogonalLoop=1;jettySize=auto;html=1;entryX=0.5;entryY=1;entryDx=0;entryDy=0;" edge="1" parent="1" source="cLZ4lquTuIUv25ZifMkw-3" target="cLZ4lquTuIUv25ZifMkw-10">
          <mxGeometry relative="1" as="geometry" />
        </mxCell>
        <mxCell id="cLZ4lquTuIUv25ZifMkw-15" style="edgeStyle=orthogonalEdgeStyle;rounded=0;orthogonalLoop=1;jettySize=auto;html=1;entryX=0.5;entryY=1;entryDx=0;entryDy=0;" edge="1" parent="1" source="cLZ4lquTuIUv25ZifMkw-3" target="cLZ4lquTuIUv25ZifMkw-13">
          <mxGeometry relative="1" as="geometry">
            <Array as="points">
              <mxPoint x="440" y="160" />
              <mxPoint x="350" y="160" />
            </Array>
          </mxGeometry>
        </mxCell>
        <mxCell id="cLZ4lquTuIUv25ZifMkw-3" value="Сам блядский сервак" style="rhombus;whiteSpace=wrap;html=1;" vertex="1" parent="1">
          <mxGeometry x="400" y="190" width="80" height="80" as="geometry" />
        </mxCell>
        <mxCell id="cLZ4lquTuIUv25ZifMkw-5" value="Хостинг" style="rhombus;whiteSpace=wrap;html=1;" vertex="1" parent="1">
          <mxGeometry x="320" y="190" width="80" height="80" as="geometry" />
        </mxCell>
        <mxCell id="cLZ4lquTuIUv25ZifMkw-7" value="Домен" style="rhombus;whiteSpace=wrap;html=1;" vertex="1" parent="1">
          <mxGeometry x="230" y="190" width="80" height="80" as="geometry" />
        </mxCell>
        <mxCell id="cLZ4lquTuIUv25ZifMkw-9" value="&lt;h2&gt;Спавн&lt;/h2&gt;" style="rounded=1;whiteSpace=wrap;html=1;" vertex="1" parent="1">
          <mxGeometry x="400" y="100" width="80" height="40" as="geometry" />
        </mxCell>
        <mxCell id="cLZ4lquTuIUv25ZifMkw-10" value="&lt;h3&gt;&lt;font style=&quot;font-size: 11px;&quot;&gt;Плагины для удобства&lt;/font&gt;&lt;/h3&gt;" style="rounded=1;whiteSpace=wrap;html=1;" vertex="1" parent="1">
          <mxGeometry x="480" y="100" width="80" height="40" as="geometry" />
        </mxCell>
        <mxCell id="cLZ4lquTuIUv25ZifMkw-13" value="&lt;h3&gt;Сторонние моды&lt;/h3&gt;" style="rounded=1;whiteSpace=wrap;html=1;" vertex="1" parent="1">
          <mxGeometry x="310" y="100" width="80" height="40" as="geometry" />
        </mxCell>
      </root>
    </mxGraphModel>
  </diagram>
</mxfile>
